<?xml version="1.0" encoding="UTF-8"?>

<svg version="1.2" baseProfile="tiny" width="146.47mm" height="101.67mm" viewBox="2900 3033 14647 10167" preserveAspectRatio="xMidYMid" fill-rule="evenodd" stroke-width="28.222" stroke-linejoin="round" xmlns="http://www.w3.org/2000/svg" xmlns:xlink="http://www.w3.org/1999/xlink" xml:space="preserve">
 <g visibility="visible" id="Slide_1">
  <g id="DrawingGroup_1">
   <g>
    <path fill="rgb(255,128,128)" stroke="none" d="M 11450,4600 C 11257,4600 11092,4571 10925,4506 10758,4442 10637,4362 10541,4250 10444,4138 10400,4029 10400,3900 10400,3771 10444,3662 10541,3550 10637,3438 10758,3358 10925,3294 11092,3229 11257,3200 11450,3200 11643,3200 11808,3229 11975,3294 12142,3358 12263,3438 12359,3550 12456,3662 12500,3771 12500,3900 12500,4029 12456,4138 12359,4250 12263,4362 12142,4442 11975,4506 11808,4571 11643,4600 11450,4600 L 11450,4600 Z"/>
    <rect fill="none" stroke="none" x="10400" y="3200" width="2101" height="1401"/>
   </g>
   <g>
    <path fill="rgb(255,128,128)" stroke="none" d="M 11450,4600 C 11257,4600 11092,4571 10925,4506 10758,4442 10637,4362 10541,4250 10444,4138 10400,4029 10400,3900 10400,3771 10444,3662 10541,3550 10637,3438 10758,3358 10925,3294 11092,3229 11257,3200 11450,3200 11643,3200 11808,3229 11975,3294 12142,3358 12263,3438 12359,3550 12456,3662 12500,3771 12500,3900 12500,4029 12456,4138 12359,4250 12263,4362 12142,4442 11975,4506 11808,4571 11643,4600 11450,4600 L 11450,4600 Z"/>
    <rect fill="none" stroke="none" x="10400" y="3200" width="2101" height="1401"/>
   </g>
   <g>
    <path fill="rgb(255,128,128)" stroke="none" d="M 5017,7402 C 4824,7390 4662,7351 4499,7276 4336,7201 4221,7113 4131,6996 4042,6878 4005,6766 4013,6638 4021,6509 4072,6402 4175,6297 4279,6192 4404,6119 4575,6066 4746,6012 4912,5993 5105,6005 5298,6017 5460,6057 5623,6132 5786,6207 5901,6294 5990,6412 6080,6529 6117,6641 6109,6770 6101,6898 6050,7005 5946,7110 5843,7216 5718,7288 5547,7342 5376,7396 5210,7415 5017,7402 L 5017,7402 Z"/>
    <rect fill="none" stroke="none" x="4011" y="6001" width="2100" height="1406"/>
   </g>
   <g>
    <path fill="rgb(255,128,128)" stroke="none" d="M 13550,8500 C 13173,8500 12852,8443 12525,8319 12198,8195 11963,8040 11775,7825 11586,7610 11500,7399 11500,7150 11500,6901 11586,6690 11775,6475 11963,6260 12198,6105 12525,5981 12852,5857 13173,5800 13550,5800 13927,5800 14248,5857 14575,5981 14902,6105 15137,6260 15325,6475 15514,6690 15600,6901 15600,7150 15600,7399 15514,7610 15325,7825 15137,8040 14902,8195 14575,8319 14248,8443 13927,8500 13550,8500 L 13550,8500 Z"/>
    <rect fill="none" stroke="none" x="11500" y="5800" width="4101" height="2701"/>
   </g>
   <g>
    <path fill="rgb(255,128,128)" stroke="none" d="M 11950,6400 C 11757,6400 11592,6371 11425,6306 11258,6242 11137,6162 11041,6050 10944,5938 10900,5829 10900,5700 10900,5571 10944,5462 11041,5350 11137,5238 11258,5158 11425,5094 11592,5029 11757,5000 11950,5000 12143,5000 12308,5029 12475,5094 12642,5158 12763,5238 12859,5350 12956,5462 13000,5571 13000,5700 13000,5829 12956,5938 12859,6050 12763,6162 12642,6242 12475,6306 12308,6371 12143,6400 11950,6400 L 11950,6400 Z"/>
    <rect fill="none" stroke="none" x="10900" y="5000" width="2101" height="1401"/>
   </g>
   <g>
    <path fill="rgb(255,128,128)" stroke="none" d="M 6750,6000 C 6557,6000 6392,5971 6225,5906 6058,5842 5937,5762 5841,5650 5744,5538 5700,5429 5700,5300 5700,5171 5744,5062 5841,4950 5937,4838 6058,4758 6225,4694 6392,4629 6557,4600 6750,4600 6943,4600 7108,4629 7275,4694 7442,4758 7563,4838 7659,4950 7756,5062 7800,5171 7800,5300 7800,5429 7756,5538 7659,5650 7563,5762 7442,5842 7275,5906 7108,5971 6943,6000 6750,6000 L 6750,6000 Z"/>
    <rect fill="none" stroke="none" x="5700" y="4600" width="2101" height="1401"/>
   </g>
   <g>
    <path fill="rgb(255,128,128)" stroke="none" d="M 12505,5396 C 12312,5384 12150,5345 11987,5270 11824,5195 11709,5107 11619,4990 11530,4872 11493,4760 11501,4632 11509,4503 11560,4396 11663,4291 11767,4186 11892,4113 12063,4060 12234,4006 12400,3987 12593,3999 12786,4011 12948,4051 13111,4126 13274,4201 13389,4288 13478,4406 13568,4523 13605,4635 13597,4764 13589,4892 13538,4999 13434,5104 13331,5210 13206,5282 13035,5336 12864,5390 12698,5409 12505,5396 L 12505,5396 Z"/>
    <rect fill="none" stroke="none" x="11499" y="3995" width="2100" height="1406"/>
   </g>
   <g>
    <path fill="rgb(255,128,128)" stroke="none" d="M 3950,11700 C 3757,11700 3592,11671 3425,11606 3258,11542 3137,11462 3041,11350 2944,11238 2900,11129 2900,11000 2900,10871 2944,10762 3041,10650 3137,10538 3258,10458 3425,10394 3592,10329 3757,10300 3950,10300 4143,10300 4308,10329 4475,10394 4642,10458 4763,10538 4859,10650 4956,10762 5000,10871 5000,11000 5000,11129 4956,11238 4859,11350 4763,11462 4642,11542 4475,11606 4308,11671 4143,11700 3950,11700 L 3950,11700 Z"/>
    <rect fill="none" stroke="none" x="2900" y="10300" width="2101" height="1401"/>
   </g>
   <g>
    <path fill="rgb(255,128,128)" stroke="none" d="M 3650,13000 C 3512,13000 3395,12977 3275,12926 3155,12876 3070,12813 3000,12725 2931,12637 2900,12551 2900,12450 2900,12349 2931,12263 3000,12175 3070,12087 3155,12024 3275,11974 3395,11923 3512,11900 3650,11900 3788,11900 3905,11923 4025,11974 4145,12024 4230,12087 4300,12175 4369,12263 4400,12349 4400,12450 4400,12551 4369,12637 4300,12725 4230,12813 4145,12876 4025,12926 3905,12977 3788,13000 3650,13000 L 3650,13000 Z"/>
    <rect fill="none" stroke="none" x="2900" y="11900" width="1501" height="1101"/>
   </g>
   <g>
    <path fill="rgb(255,128,128)" stroke="none" d="M 5450,13200 C 5073,13200 4752,13143 4425,13019 4098,12895 3863,12740 3675,12525 3486,12310 3400,12099 3400,11850 3400,11601 3486,11390 3675,11175 3863,10960 4098,10805 4425,10681 4752,10557 5073,10500 5450,10500 5827,10500 6148,10557 6475,10681 6802,10805 7037,10960 7225,11175 7414,11390 7500,11601 7500,11850 7500,12099 7414,12310 7225,12525 7037,12740 6802,12895 6475,13019 6148,13143 5827,13200 5450,13200 L 5450,13200 Z"/>
    <rect fill="none" stroke="none" x="3400" y="10500" width="4101" height="2701"/>
   </g>
   <g>
    <path fill="rgb(255,128,128)" stroke="none" d="M 14150,9500 C 13773,9500 13452,9475 13125,9420 12798,9364 12563,9296 12375,9200 12186,9104 12100,9010 12100,8900 12100,8790 12186,8696 12375,8600 12563,8504 12798,8436 13125,8380 13452,8325 13773,8300 14150,8300 14527,8300 14848,8325 15175,8380 15502,8436 15737,8504 15925,8600 16114,8696 16200,8790 16200,8900 16200,9010 16114,9104 15925,9200 15737,9296 15502,9364 15175,9420 14848,9475 14527,9500 14150,9500 L 14150,9500 Z"/>
    <rect fill="none" stroke="none" x="12100" y="8300" width="4101" height="1201"/>
   </g>
   <g>
    <path fill="rgb(255,128,128)" stroke="none" d="M 14850,13000 C 14473,13000 14152,12943 13825,12819 13498,12695 13263,12540 13075,12325 12886,12110 12800,11899 12800,11650 12800,11401 12886,11190 13075,10975 13263,10760 13498,10605 13825,10481 14152,10357 14473,10300 14850,10300 15227,10300 15548,10357 15875,10481 16202,10605 16437,10760 16625,10975 16814,11190 16900,11401 16900,11650 16900,11899 16814,12110 16625,12325 16437,12540 16202,12695 15875,12819 15548,12943 15227,13000 14850,13000 L 14850,13000 Z"/>
    <rect fill="none" stroke="none" x="12800" y="10300" width="4101" height="2701"/>
   </g>
   <g>
    <path fill="rgb(255,128,128)" stroke="none" d="M 4450,8500 C 4349,8500 4263,8471 4175,8406 4087,8342 4024,8262 3974,8150 3923,8038 3900,7929 3900,7800 3900,7671 3923,7562 3974,7450 4024,7338 4087,7258 4175,7194 4263,7129 4349,7100 4450,7100 4551,7100 4637,7129 4725,7194 4813,7258 4876,7338 4926,7450 4977,7562 5000,7671 5000,7800 5000,7929 4977,8038 4926,8150 4876,8262 4813,8342 4725,8406 4637,8471 4551,8500 4450,8500 L 4450,8500 Z"/>
    <rect fill="none" stroke="none" x="3900" y="7100" width="1101" height="1401"/>
   </g>
   <g>
    <path fill="rgb(255,128,128)" stroke="none" d="M 15150,11400 C 15049,11400 14963,11371 14875,11306 14787,11242 14724,11162 14674,11050 14623,10938 14600,10829 14600,10700 14600,10571 14623,10462 14674,10350 14724,10238 14787,10158 14875,10094 14963,10029 15049,10000 15150,10000 15251,10000 15337,10029 15425,10094 15513,10158 15576,10238 15626,10350 15677,10462 15700,10571 15700,10700 15700,10829 15677,10938 15626,11050 15576,11162 15513,11242 15425,11306 15337,11371 15251,11400 15150,11400 L 15150,11400 Z"/>
    <rect fill="none" stroke="none" x="14600" y="10000" width="1101" height="1401"/>
   </g>
   <g>
    <path fill="rgb(255,128,128)" stroke="none" d="M 3850,12600 C 3749,12600 3663,12571 3575,12506 3487,12442 3424,12362 3374,12250 3323,12138 3300,12029 3300,11900 3300,11771 3323,11662 3374,11550 3424,11438 3487,11358 3575,11294 3663,11229 3749,11200 3850,11200 3951,11200 4037,11229 4125,11294 4213,11358 4276,11438 4326,11550 4377,11662 4400,11771 4400,11900 4400,12029 4377,12138 4326,12250 4276,12362 4213,12442 4125,12506 4037,12571 3951,12600 3850,12600 L 3850,12600 Z"/>
    <rect fill="none" stroke="none" x="3300" y="11200" width="1101" height="1401"/>
   </g>
   <g>
    <path fill="rgb(255,128,128)" stroke="none" d="M 4050,10300 C 3949,10300 3863,10271 3775,10206 3687,10142 3624,10062 3574,9950 3523,9838 3500,9729 3500,9600 3500,9471 3523,9362 3574,9250 3624,9138 3687,9058 3775,8994 3863,8929 3949,8900 4050,8900 4151,8900 4237,8929 4325,8994 4413,9058 4476,9138 4526,9250 4577,9362 4600,9471 4600,9600 4600,9729 4577,9838 4526,9950 4476,10062 4413,10142 4325,10206 4237,10271 4151,10300 4050,10300 L 4050,10300 Z"/>
    <rect fill="none" stroke="none" x="3500" y="8900" width="1101" height="1401"/>
   </g>
   <g>
    <path fill="rgb(255,128,128)" stroke="none" d="M 5150,7300 C 5049,7300 4963,7271 4875,7206 4787,7142 4724,7062 4674,6950 4623,6838 4600,6729 4600,6600 4600,6471 4623,6362 4674,6250 4724,6138 4787,6058 4875,5994 4963,5929 5049,5900 5150,5900 5251,5900 5337,5929 5425,5994 5513,6058 5576,6138 5626,6250 5677,6362 5700,6471 5700,6600 5700,6729 5677,6838 5626,6950 5576,7062 5513,7142 5425,7206 5337,7271 5251,7300 5150,7300 L 5150,7300 Z"/>
    <rect fill="none" stroke="none" x="4600" y="5900" width="1101" height="1401"/>
   </g>
   <g>
    <path fill="rgb(255,128,128)" stroke="none" d="M 13550,7100 C 13449,7100 13363,7071 13275,7006 13187,6942 13124,6862 13074,6750 13023,6638 13000,6529 13000,6400 13000,6271 13023,6162 13074,6050 13124,5938 13187,5858 13275,5794 13363,5729 13449,5700 13550,5700 13651,5700 13737,5729 13825,5794 13913,5858 13976,5938 14026,6050 14077,6162 14100,6271 14100,6400 14100,6529 14077,6638 14026,6750 13976,6862 13913,6942 13825,7006 13737,7071 13651,7100 13550,7100 L 13550,7100 Z"/>
    <rect fill="none" stroke="none" x="13000" y="5700" width="1101" height="1401"/>
   </g>
   <g>
    <path fill="rgb(255,128,128)" stroke="none" d="M 15250,9100 C 15149,9100 15063,9071 14975,9006 14887,8942 14824,8862 14774,8750 14723,8638 14700,8529 14700,8400 14700,8271 14723,8162 14774,8050 14824,7938 14887,7858 14975,7794 15063,7729 15149,7700 15250,7700 15351,7700 15437,7729 15525,7794 15613,7858 15676,7938 15726,8050 15777,8162 15800,8271 15800,8400 15800,8529 15777,8638 15726,8750 15676,8862 15613,8942 15525,9006 15437,9071 15351,9100 15250,9100 L 15250,9100 Z"/>
    <rect fill="none" stroke="none" x="14700" y="7700" width="1101" height="1401"/>
   </g>
   <g>
    <path fill="rgb(255,128,128)" stroke="none" d="M 6950,6300 C 6757,6300 6592,6271 6425,6206 6258,6142 6137,6062 6041,5950 5944,5838 5900,5729 5900,5600 5900,5471 5944,5362 6041,5250 6137,5138 6258,5058 6425,4994 6592,4929 6757,4900 6950,4900 7143,4900 7308,4929 7475,4994 7642,5058 7763,5138 7859,5250 7956,5362 8000,5471 8000,5600 8000,5729 7956,5838 7859,5950 7763,6062 7642,6142 7475,6206 7308,6271 7143,6300 6950,6300 L 6950,6300 Z"/>
    <rect fill="none" stroke="none" x="5900" y="4900" width="2101" height="1401"/>
   </g>
   <g>
    <path fill="rgb(255,128,128)" stroke="none" d="M 8050,8200 C 7673,8200 7352,8143 7025,8019 6698,7895 6463,7740 6275,7525 6086,7310 6000,7099 6000,6850 6000,6601 6086,6390 6275,6175 6463,5960 6698,5805 7025,5681 7352,5557 7673,5500 8050,5500 8427,5500 8748,5557 9075,5681 9402,5805 9637,5960 9825,6175 10014,6390 10100,6601 10100,6850 10100,7099 10014,7310 9825,7525 9637,7740 9402,7895 9075,8019 8748,8143 8427,8200 8050,8200 L 8050,8200 Z"/>
    <rect fill="none" stroke="none" x="6000" y="5500" width="4101" height="2701"/>
   </g>
   <g>
    <path fill="rgb(255,128,128)" stroke="none" d="M 13350,10300 C 12973,10300 12652,10275 12325,10220 11998,10164 11763,10096 11575,10000 11386,9904 11300,9810 11300,9700 11300,9590 11386,9496 11575,9400 11763,9304 11998,9236 12325,9180 12652,9125 12973,9100 13350,9100 13727,9100 14048,9125 14375,9180 14702,9236 14937,9304 15125,9400 15314,9496 15400,9590 15400,9700 15400,9810 15314,9904 15125,10000 14937,10096 14702,10164 14375,10220 14048,10275 13727,10300 13350,10300 L 13350,10300 Z"/>
    <rect fill="none" stroke="none" x="11300" y="9100" width="4101" height="1201"/>
   </g>
   <g>
    <path fill="rgb(255,128,128)" stroke="none" d="M 7550,7400 C 7173,7400 6852,7375 6525,7320 6198,7264 5963,7196 5775,7100 5586,7004 5500,6910 5500,6800 5500,6690 5586,6596 5775,6500 5963,6404 6198,6336 6525,6280 6852,6225 7173,6200 7550,6200 7927,6200 8248,6225 8575,6280 8902,6336 9137,6404 9325,6500 9514,6596 9600,6690 9600,6800 9600,6910 9514,7004 9325,7100 9137,7196 8902,7264 8575,7320 8248,7375 7927,7400 7550,7400 L 7550,7400 Z"/>
    <rect fill="none" stroke="none" x="5500" y="6200" width="4101" height="1201"/>
   </g>
   <g>
    <path fill="rgb(255,128,128)" stroke="none" d="M 7250,6500 C 7094,6500 6961,6441 6825,6312 6689,6184 6592,6023 6514,5800 6436,5577 6400,5358 6400,5100 6400,4842 6436,4623 6514,4400 6592,4177 6689,4016 6825,3888 6961,3759 7094,3700 7250,3700 7406,3700 7539,3759 7675,3888 7811,4016 7908,4177 7986,4400 8064,4623 8100,4842 8100,5100 8100,5358 8064,5577 7986,5800 7908,6023 7811,6184 7675,6312 7539,6441 7406,6500 7250,6500 L 7250,6500 Z"/>
    <rect fill="none" stroke="none" x="6400" y="3700" width="1701" height="2801"/>
   </g>
   <g>
    <path fill="rgb(255,128,128)" stroke="none" d="M 8850,6100 C 8694,6100 8561,6041 8425,5912 8289,5784 8192,5623 8114,5400 8036,5177 8000,4958 8000,4700 8000,4442 8036,4223 8114,4000 8192,3777 8289,3616 8425,3488 8561,3359 8694,3300 8850,3300 9006,3300 9139,3359 9275,3488 9411,3616 9508,3777 9586,4000 9664,4223 9700,4442 9700,4700 9700,4958 9664,5177 9586,5400 9508,5623 9411,5784 9275,5912 9139,6041 9006,6100 8850,6100 L 8850,6100 Z"/>
    <rect fill="none" stroke="none" x="8000" y="3300" width="1701" height="2801"/>
   </g>
   <g>
    <path fill="rgb(255,128,128)" stroke="none" d="M 10450,5900 C 10294,5900 10161,5841 10025,5712 9889,5584 9792,5423 9714,5200 9636,4977 9600,4758 9600,4500 9600,4242 9636,4023 9714,3800 9792,3577 9889,3416 10025,3288 10161,3159 10294,3100 10450,3100 10606,3100 10739,3159 10875,3288 11011,3416 11108,3577 11186,3800 11264,4023 11300,4242 11300,4500 11300,4758 11264,4977 11186,5200 11108,5423 11011,5584 10875,5712 10739,5841 10606,5900 10450,5900 L 10450,5900 Z"/>
    <rect fill="none" stroke="none" x="9600" y="3100" width="1701" height="2801"/>
   </g>
   <g>
    <path fill="rgb(255,128,128)" stroke="none" d="M 12550,8200 C 12394,8200 12261,8141 12125,8012 11989,7884 11892,7723 11814,7500 11736,7277 11700,7058 11700,6800 11700,6542 11736,6323 11814,6100 11892,5877 11989,5716 12125,5588 12261,5459 12394,5400 12550,5400 12706,5400 12839,5459 12975,5588 13111,5716 13208,5877 13286,6100 13364,6323 13400,6542 13400,6800 13400,7058 13364,7277 13286,7500 13208,7723 13111,7884 12975,8012 12839,8141 12706,8200 12550,8200 L 12550,8200 Z"/>
    <rect fill="none" stroke="none" x="11700" y="5400" width="1701" height="2801"/>
   </g>
   <g>
    <path fill="rgb(255,128,128)" stroke="none" d="M 12935,7567 C 12811,7833 12688,7988 12541,8061 12394,8135 12267,8106 12136,7967 12005,7829 11909,7623 11828,7309 11748,6996 11708,6669 11701,6264 11693,5859 11720,5499 11787,5111 11854,4724 11940,4427 12064,4161 12187,3895 12311,3740 12458,3666 12605,3592 12731,3622 12863,3760 12994,3899 13090,4105 13170,4418 13250,4732 13290,5059 13298,5464 13306,5868 13279,6229 13212,6616 13145,7003 13058,7301 12935,7567 L 12935,7567 Z"/>
    <rect fill="none" stroke="none" x="11699" y="3626" width="1602" height="4476"/>
   </g>
   <g>
    <path fill="rgb(255,128,128)" stroke="none" d="M 6908,10336 C 6538,10418 6168,10465 5726,10488 5285,10510 4905,10501 4511,10458 4117,10416 3828,10353 3588,10256 3347,10160 3227,10059 3204,9935 3181,9811 3262,9700 3463,9581 3664,9462 3924,9371 4295,9290 4665,9208 5035,9160 5477,9138 5918,9115 6298,9124 6692,9167 7086,9210 7375,9273 7615,9369 7856,9466 7976,9566 7999,9690 8022,9814 7941,9925 7740,10044 7539,10163 7279,10254 6908,10336 L 6908,10336 Z"/>
    <rect fill="none" stroke="none" x="3200" y="9125" width="4804" height="1376"/>
   </g>
   <g>
    <path fill="rgb(255,128,128)" stroke="none" d="M 7108,9410 C 6738,9492 6368,9539 5926,9562 5485,9584 5105,9575 4711,9532 4317,9490 4028,9427 3788,9330 3547,9234 3427,9133 3404,9009 3381,8885 3462,8774 3663,8655 3864,8536 4124,8445 4495,8364 4865,8282 5235,8234 5677,8212 6118,8189 6498,8198 6892,8241 7286,8284 7575,8347 7815,8443 8056,8540 8176,8640 8199,8764 8222,8888 8141,8999 7940,9118 7739,9237 7479,9328 7108,9410 L 7108,9410 Z"/>
    <rect fill="none" stroke="none" x="3400" y="8199" width="4804" height="1376"/>
   </g>
   <g>
    <path fill="rgb(255,128,128)" stroke="none" d="M 12308,6236 C 11938,6318 11568,6365 11126,6388 10685,6410 10305,6401 9911,6358 9517,6316 9228,6253 8988,6156 8747,6060 8627,5959 8604,5835 8581,5711 8662,5600 8863,5481 9064,5362 9324,5271 9695,5190 10065,5108 10435,5060 10877,5038 11318,5015 11698,5024 12092,5067 12486,5110 12775,5173 13015,5269 13256,5366 13376,5466 13399,5590 13422,5714 13341,5825 13140,5944 12939,6063 12679,6154 12308,6236 L 12308,6236 Z"/>
    <rect fill="none" stroke="none" x="8600" y="5025" width="4804" height="1376"/>
   </g>
   <g>
    <path fill="rgb(255,128,128)" stroke="none" d="M 14408,7236 C 14038,7318 13668,7365 13226,7388 12785,7410 12405,7401 12011,7358 11617,7316 11328,7253 11088,7156 10847,7060 10727,6959 10704,6835 10681,6711 10762,6600 10963,6481 11164,6362 11424,6271 11795,6190 12165,6108 12535,6060 12977,6038 13418,6015 13798,6024 14192,6067 14586,6110 14875,6173 15115,6269 15356,6366 15476,6466 15499,6590 15522,6714 15441,6825 15240,6944 15039,7063 14779,7154 14408,7236 L 14408,7236 Z"/>
    <rect fill="none" stroke="none" x="10700" y="6025" width="4804" height="1376"/>
   </g>
   <g>
    <path fill="rgb(255,128,128)" stroke="none" d="M 6350,8900 C 6194,8900 6061,8841 5925,8712 5789,8584 5692,8423 5614,8200 5536,7977 5500,7758 5500,7500 5500,7242 5536,7023 5614,6800 5692,6577 5789,6416 5925,6288 6061,6159 6194,6100 6350,6100 6506,6100 6639,6159 6775,6288 6911,6416 7008,6577 7086,6800 7164,7023 7200,7242 7200,7500 7200,7758 7164,7977 7086,8200 7008,8423 6911,8584 6775,8712 6639,8841 6506,8900 6350,8900 L 6350,8900 Z"/>
    <rect fill="none" stroke="none" x="5500" y="6100" width="1701" height="2801"/>
   </g>
   <g>
    <path fill="rgb(255,128,128)" stroke="none" d="M 6951,5512 C 6841,5415 6789,5285 6784,5099 6780,4912 6824,4725 6926,4500 7028,4275 7156,4080 7337,3877 7519,3674 7697,3523 7909,3396 8121,3269 8302,3204 8488,3187 8674,3170 8808,3207 8918,3305 9028,3403 9080,3532 9085,3718 9090,3905 9045,4092 8943,4317 8842,4542 8713,4737 8532,4940 8351,5143 8172,5294 7960,5421 7748,5548 7567,5614 7381,5630 7196,5647 7061,5610 6951,5512 L 6951,5512 Z"/>
    <rect fill="none" stroke="none" x="6783" y="3182" width="2304" height="2454"/>
   </g>
   <g>
    <path fill="rgb(255,128,128)" stroke="none" d="M 12667,8029 C 12557,7932 12505,7802 12500,7616 12496,7429 12540,7242 12642,7017 12744,6792 12872,6597 13053,6394 13235,6191 13413,6040 13625,5913 13837,5786 14018,5721 14204,5704 14390,5687 14524,5724 14634,5822 14744,5920 14796,6049 14801,6235 14806,6422 14761,6609 14659,6834 14558,7059 14429,7254 14248,7457 14067,7660 13888,7811 13676,7938 13464,8065 13283,8131 13097,8147 12912,8164 12777,8127 12667,8029 L 12667,8029 Z"/>
    <rect fill="none" stroke="none" x="12499" y="5699" width="2304" height="2454"/>
   </g>
   <g>
    <path fill="rgb(255,128,128)" stroke="none" d="M 4133,5950 C 4232,5840 4361,5789 4548,5785 4734,5782 4921,5827 5146,5930 5370,6033 5564,6163 5767,6345 5969,6528 6118,6707 6244,6920 6370,7132 6435,7314 6450,7499 6466,7685 6429,7820 6330,7929 6232,8039 6102,8090 5915,8094 5729,8097 5542,8052 5318,7949 5093,7846 4899,7716 4697,7534 4494,7351 4345,7172 4219,6959 4093,6747 4029,6565 4013,6379 3997,6194 4035,6059 4133,5950 L 4133,5950 Z"/>
    <rect fill="none" stroke="none" x="4009" y="5785" width="2446" height="2310"/>
   </g>
   <g>
    <path fill="rgb(255,128,128)" stroke="none" d="M 9305,6536 C 8935,6618 8565,6665 8123,6688 7682,6710 7302,6701 6908,6658 6514,6616 6225,6553 5985,6456 5744,6360 5624,6259 5601,6135 5578,6011 5659,5900 5860,5781 6061,5662 6321,5571 6692,5490 7062,5408 7432,5360 7874,5338 8315,5315 8695,5324 9089,5367 9483,5410 9772,5473 10012,5569 10253,5666 10373,5766 10396,5890 10419,6014 10338,6125 10137,6244 9936,6363 9676,6454 9305,6536 L 9305,6536 Z"/>
    <rect fill="none" stroke="none" x="5597" y="5325" width="4804" height="1376"/>
   </g>
   <g>
    <path fill="rgb(255,128,128)" stroke="none" d="M 15503,9616 C 15661,9828 15721,10052 15695,10331 15670,10609 15567,10859 15366,11130 15165,11401 14927,11611 14604,11801 14281,11991 13971,12104 13613,12163 13255,12222 12956,12208 12659,12120 12362,12031 12154,11894 11997,11682 11840,11470 11780,11247 11805,10968 11831,10690 11934,10439 12135,10169 12335,9898 12574,9688 12897,9498 13219,9308 13530,9194 13888,9136 14246,9077 14544,9090 14842,9179 15139,9267 15346,9404 15503,9616 L 15503,9616 Z"/>
    <rect fill="none" stroke="none" x="11799" y="9099" width="3903" height="3101"/>
   </g>
   <g>
    <path fill="rgb(255,128,128)" stroke="none" d="M 15450,11900 C 15073,11900 14752,11843 14425,11719 14098,11595 13863,11440 13675,11225 13486,11010 13400,10799 13400,10550 13400,10301 13486,10090 13675,9875 13863,9660 14098,9505 14425,9381 14752,9257 15073,9200 15450,9200 15827,9200 16148,9257 16475,9381 16802,9505 17037,9660 17225,9875 17414,10090 17500,10301 17500,10550 17500,10799 17414,11010 17225,11225 17037,11440 16802,11595 16475,11719 16148,11843 15827,11900 15450,11900 L 15450,11900 Z"/>
    <rect fill="none" stroke="none" x="13400" y="9200" width="4101" height="2701"/>
   </g>
   <g>
    <path fill="rgb(255,128,128)" stroke="none" d="M 6950,7100 C 6573,7100 6252,7058 5925,6966 5598,6874 5363,6759 5175,6600 4986,6441 4900,6284 4900,6100 4900,5916 4986,5759 5175,5600 5363,5441 5598,5326 5925,5234 6252,5142 6573,5100 6950,5100 7327,5100 7648,5142 7975,5234 8302,5326 8537,5441 8725,5600 8914,5759 9000,5916 9000,6100 9000,6284 8914,6441 8725,6600 8537,6759 8302,6874 7975,6966 7648,7058 7327,7100 6950,7100 L 6950,7100 Z"/>
    <rect fill="none" stroke="none" x="4900" y="5100" width="4101" height="2001"/>
   </g>
   <g>
    <path fill="rgb(255,128,128)" stroke="none" d="M 8947,5215 C 8891,4842 8885,4518 8928,4181 8970,3845 9049,3595 9178,3385 9308,3175 9450,3067 9632,3039 9814,3012 9982,3074 10167,3237 10353,3400 10501,3615 10641,3925 10780,4234 10869,4545 10925,4918 10981,5292 10987,5615 10945,5952 10902,6289 10824,6538 10694,6748 10564,6958 10422,7067 10240,7094 10058,7121 9891,7059 9705,6897 9519,6734 9371,6518 9232,6209 9092,5899 9003,5588 8947,5215 L 8947,5215 Z"/>
    <rect fill="none" stroke="none" x="8899" y="3033" width="2075" height="4069"/>
   </g>
   <g>
    <path fill="rgb(255,128,128)" stroke="none" d="M 8947,5216 C 8891,4843 8885,4519 8928,4182 8970,3846 9049,3596 9178,3386 9308,3176 9450,3068 9632,3040 9814,3013 9982,3075 10167,3238 10353,3401 10501,3616 10641,3926 10780,4235 10869,4546 10925,4919 10981,5293 10987,5616 10945,5953 10902,6290 10824,6539 10694,6749 10564,6959 10422,7068 10240,7095 10058,7122 9891,7060 9705,6898 9519,6735 9371,6519 9232,6210 9092,5900 9003,5589 8947,5216 L 8947,5216 Z"/>
    <rect fill="none" stroke="none" x="8899" y="3034" width="2075" height="4069"/>
   </g>
   <g>
    <path fill="rgb(255,128,128)" stroke="none" d="M 14967,11678 C 14857,11581 14805,11451 14800,11265 14796,11078 14840,10891 14942,10666 15044,10441 15172,10246 15353,10043 15535,9840 15713,9689 15925,9562 16137,9435 16318,9370 16504,9353 16690,9336 16824,9373 16934,9471 17044,9569 17096,9698 17101,9884 17106,10071 17061,10258 16959,10483 16858,10708 16729,10903 16548,11106 16367,11309 16188,11460 15976,11587 15764,11714 15583,11780 15397,11796 15212,11813 15077,11776 14967,11678 L 14967,11678 Z"/>
    <rect fill="none" stroke="none" x="14799" y="9348" width="2304" height="2454"/>
   </g>
   <g>
    <path fill="rgb(255,128,128)" stroke="none" d="M 3366,11951 C 3256,11854 3204,11724 3199,11538 3195,11351 3239,11164 3341,10939 3443,10714 3571,10519 3752,10316 3934,10113 4112,9962 4324,9835 4536,9708 4717,9643 4903,9626 5089,9609 5223,9646 5333,9744 5443,9842 5495,9971 5500,10157 5505,10344 5460,10531 5358,10756 5257,10981 5128,11176 4947,11379 4766,11582 4587,11733 4375,11860 4163,11987 3982,12053 3796,12069 3611,12086 3476,12049 3366,11951 L 3366,11951 Z"/>
    <rect fill="none" stroke="none" x="3198" y="9621" width="2304" height="2454"/>
   </g>
   <g>
    <path fill="rgb(255,128,128)" stroke="none" d="M 12070,5993 C 11925,6018 11791,5977 11643,5864 11495,5751 11377,5599 11265,5379 11154,5158 11083,4936 11038,4667 10993,4399 10988,4165 11022,3920 11055,3676 11118,3494 11221,3338 11324,3183 11437,3101 11583,3077 11728,3053 11861,3093 12009,3206 12158,3319 12276,3471 12387,3692 12499,3912 12570,4135 12615,4403 12660,4672 12665,4905 12631,5150 12597,5395 12535,5577 12432,5732 12328,5887 12215,5969 12070,5993 L 12070,5993 Z"/>
    <rect fill="none" stroke="none" x="10999" y="3070" width="1655" height="2932"/>
   </g>
   <g>
    <path fill="rgb(255,128,128)" stroke="none" d="M 6117,8123 C 5972,8148 5838,8107 5690,7994 5542,7881 5424,7729 5312,7509 5201,7288 5130,7066 5085,6797 5040,6529 5035,6295 5069,6050 5102,5806 5165,5624 5268,5468 5371,5313 5484,5231 5630,5207 5775,5183 5908,5223 6056,5336 6205,5449 6323,5601 6434,5822 6546,6042 6617,6265 6662,6533 6707,6802 6712,7035 6678,7280 6644,7525 6582,7707 6479,7862 6375,8017 6262,8099 6117,8123 L 6117,8123 Z"/>
    <rect fill="none" stroke="none" x="5046" y="5200" width="1655" height="2932"/>
   </g>
   <g>
    <path fill="rgb(255,128,128)" stroke="none" d="M 16317,12823 C 16172,12848 16038,12807 15890,12694 15742,12581 15624,12429 15512,12209 15401,11988 15330,11766 15285,11497 15240,11229 15235,10995 15269,10750 15302,10506 15365,10324 15468,10168 15571,10013 15684,9931 15830,9907 15975,9883 16108,9923 16256,10036 16405,10149 16523,10301 16634,10522 16746,10742 16817,10965 16862,11233 16907,11502 16912,11735 16878,11980 16844,12225 16782,12407 16679,12562 16575,12717 16462,12799 16317,12823 L 16317,12823 Z"/>
    <rect fill="none" stroke="none" x="15246" y="9900" width="1655" height="2932"/>
   </g>
   <g>
    <path fill="rgb(255,128,128)" stroke="none" d="M 12546,9604 C 12384,9446 12307,9238 12300,8937 12293,8637 12359,8335 12509,7972 12660,7609 12850,7295 13118,6967 13385,6640 13650,6397 13963,6193 14275,5988 14543,5882 14817,5855 15092,5828 15291,5887 15453,6045 15615,6203 15693,6412 15699,6712 15706,7013 15641,7315 15490,7677 15340,8040 15149,8354 14882,8682 14614,9009 14350,9252 14037,9457 13724,9662 13457,9767 13182,9794 12908,9821 12709,9762 12546,9604 L 12546,9604 Z"/>
    <rect fill="none" stroke="none" x="12299" y="5848" width="3402" height="3954"/>
   </g>
   <g>
    <path fill="rgb(255,128,128)" stroke="none" d="M 3503,9388 C 3521,9162 3633,8970 3860,8773 4087,8576 4361,8434 4737,8319 5112,8204 5476,8150 5899,8147 6321,8145 6677,8194 7034,8304 7391,8415 7643,8554 7839,8748 8035,8942 8116,9133 8098,9359 8080,9585 7968,9777 7741,9974 7514,10171 7239,10313 6864,10428 6489,10543 6125,10597 5702,10600 5279,10602 4924,10553 4566,10443 4209,10332 3957,10193 3762,9999 3566,9805 3485,9614 3503,9388 L 3503,9388 Z"/>
    <rect fill="none" stroke="none" x="3500" y="8147" width="4602" height="2454"/>
   </g>
   <g>
    <path fill="rgb(255,128,128)" stroke="none" d="M 14375,5333 C 14499,5523 14530,5743 14471,6038 14413,6333 14283,6613 14058,6935 13832,7256 13578,7522 13246,7784 12914,8045 12603,8225 12254,8357 11904,8489 11620,8534 11346,8501 11072,8469 10891,8367 10767,8178 10642,7989 10612,7768 10671,7474 10729,7179 10858,6898 11084,6577 11309,6255 11563,5990 11895,5728 12227,5466 12538,5286 12888,5154 13238,5022 13522,4977 13796,5010 14069,5043 14251,5144 14375,5333 L 14375,5333 Z"/>
    <rect fill="none" stroke="none" x="10641" y="4999" width="3860" height="3514"/>
   </g>
   <g>
    <path fill="rgb(255,128,128)" stroke="none" d="M 14526,10421 C 14850,10364 15167,10337 15540,10334 15912,10331 16228,10353 16549,10403 16870,10454 17100,10519 17284,10611 17467,10702 17550,10793 17546,10900 17543,11007 17456,11099 17267,11194 17078,11288 16845,11357 16520,11413 16196,11470 15879,11497 15507,11500 15134,11503 14818,11481 14497,11430 14176,11379 13946,11315 13763,11223 13579,11132 13497,11041 13500,10934 13503,10827 13590,10735 13779,10640 13968,10546 14202,10477 14526,10421 L 14526,10421 Z"/>
    <rect fill="none" stroke="none" x="13499" y="10333" width="4049" height="1169"/>
   </g>
   <g>
    <path fill="rgb(255,128,128)" stroke="none" d="M 10537,6950 C 11085,6874 11622,6838 12252,6834 12882,6830 13417,6859 13960,6928 14503,6996 14892,7083 15203,7206 15513,7329 15652,7450 15647,7595 15642,7739 15494,7862 15175,7989 14855,8116 14460,8209 13911,8284 13363,8360 12826,8396 12196,8400 11566,8405 11031,8375 10488,8307 9945,8238 9556,8151 9245,8028 8935,7906 8795,7784 8801,7640 8806,7496 8954,7372 9273,7245 9593,7118 9988,7026 10537,6950 L 10537,6950 Z"/>
    <rect fill="none" stroke="none" x="8800" y="6833" width="6849" height="1569"/>
   </g>
   <g>
    <path fill="rgb(255,128,128)" stroke="none" d="M 5888,6250 C 6437,6153 6974,6107 7604,6101 8234,6096 8769,6133 9312,6221 9855,6308 10244,6419 10555,6576 10866,6733 11005,6888 11000,7072 10995,7256 10847,7413 10527,7575 10208,7737 9812,7855 9264,7952 8715,8048 8178,8095 7548,8100 6918,8105 6383,8068 5840,7981 5297,7893 4908,7782 4597,7625 4286,7469 4147,7314 4152,7130 4157,6946 4305,6788 4625,6626 4944,6464 5340,6346 5888,6250 L 5888,6250 Z"/>
    <rect fill="none" stroke="none" x="4151" y="6100" width="6851" height="2002"/>
   </g>
   <g>
    <path fill="rgb(255,128,128)" stroke="none" d="M 11028,5836 C 11131,6183 11124,6457 11004,6713 10884,6969 10688,7130 10377,7226 10066,7322 9734,7325 9316,7236 8897,7147 8518,6992 8104,6741 7689,6490 7365,6219 7066,5873 6767,5528 6584,5213 6480,4866 6377,4519 6384,4244 6504,3988 6624,3732 6820,3572 7131,3476 7442,3380 7774,3376 8192,3466 8611,3555 8990,3710 9404,3961 9819,4212 10143,4483 10442,4828 10741,5173 10924,5489 11028,5836 L 11028,5836 Z"/>
    <rect fill="none" stroke="none" x="6408" y="3401" width="4693" height="3901"/>
   </g>
   <g>
    <path fill="rgb(255,128,128)" stroke="none" d="M 10041,6098 C 10125,6383 10118,6608 10021,6818 9924,7028 9765,7160 9514,7239 9262,7318 8993,7321 8654,7248 8315,7174 8007,7047 7672,6841 7337,6636 7073,6413 6832,6130 6590,5846 6441,5588 6358,5303 6274,5018 6280,4793 6377,4583 6474,4372 6633,4241 6885,4162 7137,4083 7406,4080 7745,4153 8084,4226 8391,4354 8726,4559 9062,4765 9325,4988 9567,5271 9809,5554 9957,5813 10041,6098 L 10041,6098 Z"/>
    <rect fill="none" stroke="none" x="6299" y="4100" width="3802" height="3202"/>
   </g>
   <g>
    <path fill="rgb(255,128,128)" stroke="none" d="M 15541,7298 C 15625,7583 15618,7808 15521,8018 15424,8228 15265,8360 15014,8439 14762,8518 14493,8521 14154,8448 13815,8374 13507,8247 13172,8041 12837,7836 12573,7613 12332,7330 12090,7046 11941,6788 11858,6503 11774,6218 11780,5993 11877,5783 11974,5572 12133,5441 12385,5362 12637,5283 12906,5280 13245,5353 13584,5426 13891,5554 14226,5759 14562,5965 14825,6188 15067,6471 15309,6754 15457,7013 15541,7298 L 15541,7298 Z"/>
    <rect fill="none" stroke="none" x="11799" y="5300" width="3802" height="3202"/>
   </g>
   <g>
    <path fill="rgb(255,128,128)" stroke="none" d="M 9850,13200 L 4200,13200 4200,7300 15500,7300 15500,13200 9850,13200 Z"/>
    <rect fill="none" stroke="none" x="4200" y="7300" width="11301" height="5901"/>
   </g>
   <g>
    <path fill="rgb(255,128,128)" stroke="none" d="M 15717,13124 C 15572,13149 15438,13108 15290,12995 15142,12882 15024,12730 14912,12510 14801,12289 14730,12067 14685,11798 14640,11530 14635,11296 14669,11051 14702,10807 14765,10625 14868,10469 14971,10314 15084,10232 15230,10208 15375,10184 15508,10224 15656,10337 15805,10450 15923,10602 16034,10823 16146,11043 16217,11266 16262,11534 16307,11803 16312,12036 16278,12281 16244,12526 16182,12708 16079,12863 15975,13018 15862,13100 15717,13124 L 15717,13124 Z"/>
    <rect fill="none" stroke="none" x="14646" y="10201" width="1655" height="2932"/>
   </g>
   <g>
    <path fill="rgb(255,128,128)" stroke="none" d="M 4250,13200 C 4112,13200 3995,13177 3875,13126 3755,13076 3670,13013 3600,12925 3531,12837 3500,12751 3500,12650 3500,12549 3531,12463 3600,12375 3670,12287 3755,12224 3875,12174 3995,12123 4112,12100 4250,12100 4388,12100 4505,12123 4625,12174 4745,12224 4830,12287 4900,12375 4969,12463 5000,12549 5000,12650 5000,12751 4969,12837 4900,12925 4830,13013 4745,13076 4625,13126 4505,13177 4388,13200 4250,13200 L 4250,13200 Z"/>
    <rect fill="none" stroke="none" x="3500" y="12100" width="1501" height="1101"/>
   </g>
   <g>
    <path fill="rgb(255,128,128)" stroke="none" d="M 15250,13200 C 15112,13200 14995,13177 14875,13126 14755,13076 14670,13013 14600,12925 14531,12837 14500,12751 14500,12650 14500,12549 14531,12463 14600,12375 14670,12287 14755,12224 14875,12174 14995,12123 15112,12100 15250,12100 15388,12100 15505,12123 15625,12174 15745,12224 15830,12287 15900,12375 15969,12463 16000,12549 16000,12650 16000,12751 15969,12837 15900,12925 15830,13013 15745,13076 15625,13126 15505,13177 15388,13200 15250,13200 L 15250,13200 Z"/>
    <rect fill="none" stroke="none" x="14500" y="12100" width="1501" height="1101"/>
   </g>
   <g>
    <path fill="rgb(255,128,128)" stroke="none" d="M 12139,9423 C 12615,9706 13057,10012 13552,10402 14047,10792 14447,11148 14829,11540 15210,11933 15460,12243 15626,12533 15792,12823 15825,13005 15731,13114 15637,13224 15445,13228 15116,13128 14787,13028 14420,12853 13944,12570 13468,12288 13026,11981 12531,11591 12036,11201 11636,10845 11254,10453 10873,10060 10623,9750 10457,9460 10290,9170 10258,8989 10352,8879 10446,8770 10638,8765 10967,8865 11296,8966 11663,9140 12139,9423 L 12139,9423 Z"/>
    <rect fill="none" stroke="none" x="10299" y="8793" width="5486" height="4408"/>
   </g>
   <g>
    <path fill="rgb(255,128,128)" stroke="none" d="M 15917,11793 C 15772,11818 15638,11777 15490,11664 15342,11551 15224,11399 15112,11179 15001,10958 14930,10736 14885,10467 14840,10199 14835,9965 14869,9720 14902,9476 14965,9294 15068,9138 15171,8983 15284,8901 15430,8877 15575,8853 15708,8893 15856,9006 16005,9119 16123,9271 16234,9492 16346,9712 16417,9935 16462,10203 16507,10472 16512,10705 16478,10950 16444,11195 16382,11377 16279,11532 16175,11687 16062,11769 15917,11793 L 15917,11793 Z"/>
    <rect fill="none" stroke="none" x="14846" y="8870" width="1655" height="2932"/>
   </g>
  </g>
 </g>
</svg>