<svg xmlns="http://www.w3.org/2000/svg" viewBox="0 0 640 512"><!--! Font Awesome Pro 6.2.0 by @fontawesome - https://fontawesome.com License - https://fontawesome.com/license (Commercial License) Copyright 2022 Fonticons, Inc. --><path d="M576 64H64C28.7 64 0 92.7 0 128V384c0 35.3 28.7 64 64 64H184.4c24.2 0 46.4-13.7 57.2-35.4l32-64c8.8-17.5 26.7-28.6 46.3-28.6s37.5 11.1 46.3 28.6l32 64c10.8 21.7 33 35.4 57.2 35.4H576c35.3 0 64-28.7 64-64V128c0-35.3-28.7-64-64-64zM224 240c0 35.3-28.7 64-64 64s-64-28.7-64-64s28.7-64 64-64s64 28.7 64 64zm256 64c-35.3 0-64-28.7-64-64s28.7-64 64-64s64 28.7 64 64s-28.7 64-64 64z"

  fill="#9190e4"
/></svg>
  <!-- <path d="M1 21h22L12 2 1 21zm12-3h-2v-2h2v2zm0-4h-2v-4h2v4z" fill="rgb(145, 144, 228)"/> -->
<svg fill="#000000" height="24" viewBox="0 0 24 24" width="24" xmlns="http://www.w3.org/2000/svg">
  <path d="M0 0h24v24H0z" fill="none"/>
</svg>
